<?xml version="1.0" encoding="utf-8"?>
<!-- Generator: Adobe Illustrator 27.3.1, SVG Export Plug-In . SVG Version: 6.00 Build 0)  -->
<svg version="1.1" id="Capa_2" xmlns="http://www.w3.org/2000/svg" xmlns:xlink="http://www.w3.org/1999/xlink" x="0px" y="0px"
	 viewBox="0 0 429.9 856.6" style="enable-background:new 0 0 429.9 856.6;" xml:space="preserve">
<style type="text/css">
	.st0{fill:#FFA472;}
	.st1{fill:#F7CBB8;}
	.st2{fill:#FF8E5E;}
	.st3{fill:#FF9263;}
	.st4{fill:#EF923D;}
</style>
<g id="cuerpo">
	<g>
		<path class="st0" d="M372.5,398l-6.8,7.4l-13.6-1.9l-28.5-60l-7.6-21.4c-1.5-4.3-2.4-8.8-2.6-13.4l-0.1-1.6
			c-0.2-5-1.5-9.9-3.7-14.4l-10.2-20.4l-4.8-13.9l-2.7,12l-5.6,27.9l-4.6,14.3c-0.7,2-0.9,4.2-0.7,6.3l1.6,21.5l1.9,11.1l5.6,38.4
			l9.2,36.8c1.3,5.3,2.1,10.8,2.3,16.3l1.7,43.4c0.3,7-0.1,14-1.3,20.9l-5.1,31.7l-3.7,30.3l1.9,26c6.8,32.9,2.1,65.7-3.1,98.5
			c-1.4,9.1-3.3,18.1-5.5,27l-8.8,35.7c-0.6,2.5-0.5,5.2,0.4,7.7l2.1,6l1.4,8.8v7.9l7.4,17.2c0,0,5.6,13,5.6,13.1
			c5,11.7-10,13.6-18.1,16.8c-1.8,0.7-3.8,1-5.8,0.8L263,834c-2.1-0.2-4.1-1-5.8-2.3l-3-2.2l-2.6-5.3l-0.5-25.1l1.9-14.9l-1-8.1
			c-0.3-2.3-0.1-4.7,0.6-6.9l1.5-5.2c0.8-2.9,1.2-5.9,1.1-9l-1.2-29.8c-1.7-20.5-6.2-60.4-7.4-80.9c-1.1-19.3,0.7-27.5,0.4-38.6
			l-1.8-13.3l-1.9-35.3l-8.4-40.4l-6.6-26.3c-0.9-3.5-1.5-7.1-1.8-10.6l-2.3-26.3l-2,26c-0.3,3.8-0.9,7.6-1.8,11.3l-6.5,26
			l-8.4,40.4l-1.9,35.3l-2.4,12.3c-2.6,13.2,0.1,26.9-0.2,40.2c-0.5,26.8-3.9,53.6-6.2,80.3l-1.2,29.8c-0.1,3,0.2,6.1,1.1,9l1.5,5.2
			c0.6,2.3,0.8,4.6,0.6,6.9l-1,8.1l1.9,14.9l-0.5,25.1l-2,7.7l-3,2.2c-1.7,1.3-3.7,2.1-5.8,2.3l-7.5,0.8c-2.1,0.2-4.2-0.1-6.1-0.9
			c-2.2-0.9-4.8-2-4.8-2c-7.6-2.6-17.5-3.7-13.1-14.9l5.8-14.6l7.4-17.2v-7.9l1.4-8.8l2-5.8c0.9-2.5,1-5.3,0.3-7.9l-9-34.1
			c-2.4-9-4.4-18.2-6-27.4c-4.7-26.5-11.7-58.4-6.2-85.2l3.1-14.9l1.9-26l-3.7-30.3l-5.2-32.3c-1.1-6.5-1.5-13.1-1.3-19.7l1.2-42.4
			c0.2-6.1,1-12.1,2.6-18l9.5-36.8l5.6-38.4l1.9-11.1l1.6-21.5c0.2-2.1-0.1-4.3-0.7-6.3l-4.6-14.3l-5.6-27.9l-2.6-12l-4.8,13.9
			l-10.6,21.1c-2,4-3.2,8.5-3.3,13l-0.1,2.4c-0.2,4.5-1,9-2.6,13.3l-7.6,21.4l-28.5,60l-13.6,1.9l-6.8-7.4l5.6-24.1l8.7-54.5l4.7-21
			c1-4.5,2.8-8.8,5.3-12.7l1.4-2.2c3.5-5.3,5.7-11.3,6.6-17.5l3.6-25.2v-15.5c0-7,0.5-14,1.4-21l1.1-8.3c0.8-6.4,2.9-12.6,6.2-18.1
			l0.8-1.4c2.3-4,5.4-7.4,9.2-10.1l5.6-4c2.9-2.1,6.3-3.5,9.9-4l11.1-1.6l7.7-0.6c2.7-0.2,5.4-1,7.8-2.2l22.6-11.6
			c3.8-2,6.3-5.8,6.5-10.2l0.6-14.8l0.8-17.6l43.7-0.5l0.9,20.1l0.6,12.9c0.2,4.2,2.6,8,6.3,10l20.2,10.9c3.1,1.7,6.5,2.5,10,2.5
			l6.4-0.1l12,1.6c3.9,0.5,7.6,2.1,10.7,4.6l4.2,3.3c3.5,2.7,6.4,6.2,8.5,10.1l1.7,3c2.9,5.3,4.8,11,5.5,16.9
			c1.7,13,2.5,26,2.5,39.1v6.4l3.6,25.2c0.9,6.3,3.2,12.3,6.6,17.6l0.8,1.2c3,4.5,5.1,9.6,6.3,14.9l4.4,19.8l8.7,54.5L372.5,398z"/>
		<path class="st0" d="M96,399.3l1.2,4.8c0.5,1.9,0.5,3.9,0.2,5.8l-3,17.4l-4.9,13.7c-0.7,2-1.7,4-2.8,5.8l-9,15.1
			c-0.7,1.2-1.9,2-3.2,2.3l-5.6,1.2l-7.1,2.7L58,470c-0.7,0.4-1.5,0.3-2.2-0.2l-2.1-1.5c-0.5-0.3-0.7-0.9-0.7-1.4l0.2-4l-2.1-4.1
			c-0.4-0.9-0.5-1.8-0.3-2.8l4.6-20.2c0-0.2,0-0.4-0.2-0.5c-0.2-0.1-0.4-0.1-0.5,0l-4.6,2.5c-1.7,0.9-3.7,1-5.4,0.3
			c-2.1-0.8-3.6-2.8-3.7-5.1c0-0.4,0.2-0.7,0.5-0.8l5.2-2l3.6-7.4l1.7-7.4c0.5-2.1,1.6-4.1,3.2-5.6l6.9-6.5l8.9-5.9
			c1.7-1.1,3.7-1.7,5.7-1.6l4.8,0.2L96,399.3z"/>
		<path class="st0" d="M351.4,398.8l-1.2,4.7c-0.5,2.1-0.6,4.2-0.2,6.3l3.1,17.4l6.1,17l10.2,17.1c1.1,1.8,2.9,3.1,5,3.6l4.5,1
			l7.2,2.8l3,1.5c1.3,0.6,2.7,0.5,3.9-0.3c1.3-0.9,2-2.4,1.9-4l-0.1-2.5l1.7-3.4c0.7-1.4,0.9-2.9,0.5-4.4l-4.7-20.7l5.5,2.9
			c1.8,1,4,1.1,5.9,0.3l1.1-0.4c1.4-0.5,2.3-1.8,2.4-3.3l0.1-2l-5.8-2.2l-3.6-7.5l-1.7-7.5c-0.5-2.2-1.6-4.2-3.3-5.7l-6.9-6.5
			l-8.8-5.9c-1.8-1.2-4-1.9-6.3-1.8l-4.6,0.2L351.4,398.8z"/>
		<g>
			<path class="st1" d="M247.9,119.6l-9.3,16.9c-1.2,2.3-3.4,3.9-6,4.5l-2,0.4c-3.8,0.8-7.7,0.8-11.5,0l-1.8-0.4
				c-3.2-0.7-5.9-2.9-7.2-5.9l-7.7-17.7l0.8-17.6l43.7-0.5L247.9,119.6z"/>
		</g>
		<path class="st2" d="M147.5,214.8l0.1-0.3c0-0.3,0.2-0.5,0.5-0.7c0.3-0.1,0.6-0.1,0.8,0.1l4.7,3.3l6.8,29.7c1,4.2,2.5,5.9,6.7,6.4
			l23.7,1.4c0.2,0,0.4,0.2,0.4,0.4c0,0.2-0.2,0.4-0.4,0.4l-24.3,1.2c-2,0.1-3.9-0.7-5.3-2.1l-2.3-2.4c-1.3-1.3-2.1-3-2.5-4.9
			l-4.8-28.5L147.5,214.8z"/>
		<path class="st2" d="M302.1,214.2l-0.3-1.1c-0.1-0.2-0.2-0.3-0.4-0.4c-0.2-0.1-0.4,0-0.5,0.1l-5.4,4.4l-6.4,28
			c-0.8,3.6-3.9,6.3-7.6,6.7l-24.3,2.6c-0.2,0-0.4,0.2-0.4,0.5c0,0.2,0.2,0.4,0.4,0.4l25.4,0.4c1.9,0,3.8-0.6,5.3-1.8l2.6-2
			c1.7-1.3,2.8-3.2,3.1-5.3l3.8-27.5L302.1,214.2z"/>
		<path class="st2" d="M215.4,288.7l-11.8-0.7c-2.3-0.3-3-1.2-3.6-3.4l-3.1-13.8h-1.3l2.6,15.6l3.4,3.6l13.7-0.7
			C215.4,289.1,215.4,288.9,215.4,288.7z"/>
		<path class="st2" d="M252,270.8l-3.1,13.6c-0.4,2-2.1,3.4-4.1,3.6l-12.4,1c0,0.1,0,0.2,0,0.3l14.9,0.4l3.8-2.6l2.2-16.3H252z"/>
		<path class="st2" d="M215.1,318.1l-11.5-0.7c-2.3-0.3-3-1.2-3.6-3.4l-3.1-13.6h-1.3l2.6,15.4l3.4,3.6l13.5-0.7
			C215.1,318.5,215.1,318.3,215.1,318.1z"/>
		<path class="st2" d="M251.9,300.4l-3,13.4c-0.4,2-2.1,3.4-4.1,3.6l-12.9,1c0,0.1,0,0.2,0,0.3l15.3,0.4l3.8-2.6l2.2-16H251.9z"/>
		<path class="st2" d="M214.4,344.2l-10-0.6c-2.3-0.3-3-1.2-3.6-3.4l-3.1-13.7h-1.3l2.6,15.5l3.4,3.6l12-0.6V344.2z"/>
		<path class="st2" d="M251.1,326.4l-3.1,13.5c-0.4,2-2.1,3.4-4.1,3.6l-8.5,0.7v0.8l11,0.3l3.8-2.6l2.2-16.2H251.1z"/>
		<path class="st2" d="M212.2,446.5c-0.2-0.2-0.6-0.1-0.8,0.1c-0.2,0.2-0.2,0.5,0,0.7l5.1,5.7c2.3,2.6,6.1,3.6,9.6,2.7l8.6-2.3
			c3.1-0.8,3.8-3.5,5.4-6l6.8-10.8c1.4-2.1,2.3-4.5,2.7-7l0.8-5.1c0-0.3-0.1-0.6-0.4-0.7c-0.3-0.1-0.6,0-0.8,0.2l-6.4,11.6l-4.8,6.9
			c-1.8,2.6-2.3,4.5-5.5,5.7l-6.9,2.5c-2.6,1-6.2,0.4-8.6-1.1L212.2,446.5z"/>
		<path class="st1" d="M226,348.3c-0.1,0.3-0.4,0.4-0.7,0.5c-0.3,0-0.6-0.1-0.8-0.3l-1.6-1.9c-0.5-0.6-0.5-1.3-0.1-2l1.2-1.9
			c0.2-0.4,0.6-0.6,1-0.6c0.4,0,0.8,0.1,1.1,0.5l1.2,1.5c0.4,0.5,0.5,1.1,0.2,1.7L226,348.3z"/>
		<path class="st0" d="M201.2,104.8c-0.2-0.5-4.5-1.3-5.3-1.7c-2-1-2.7-2.5-3.9-4.4c-2.2-3.6-4-7.4-5.9-11.1c-1-2-5.2-12.6,0.8-11.6
			l1.3,0.2l1.7,0.3l3.3,8.4C193.3,84.9,201.2,104.7,201.2,104.8z"/>
		<path class="st0" d="M265.7,80.3c-0.3,2.8-1.7,6.2-2.2,7.3c-2.5,5-5,13.8-10.8,16c-0.8,0.3-4.1,0.6-4.3,1.2c0,0,7-17.6,7-17.6
			l4.2-10.7c0,0,2.9-0.5,3-0.5C265.5,75.6,266.1,77.7,265.7,80.3z"/>
		<path class="st3" d="M196.2,416.6c-0.1-0.9-0.5-1.7-1.1-2.3c-4.7-5.5-10.2-13.5-15.7-26.4c-1.2-2.9,1.7-11.8-1.3-14.1
			c-2.9-2.3-10.5-4.6-7.6-1.1l4.6,2.7l-0.7,10.5c-0.1,1.9,0.4,3.7,1.5,5.3c3.9,5.7,13.6,19.6,19.7,26.3c0.1,0.1,0.2,0.1,0.4,0.1
			c0.1-0.1,0.2-0.2,0.2-0.3C196.3,416.9,196.3,416.7,196.2,416.6z"/>
		<path class="st3" d="M269.2,373.8c-2.9,2.3,0,11.2-1.3,14.1c-2.9,6.8-5.9,12.3-8.7,16.7c-0.4,0.6-0.4,1.3-0.1,1.9
			c0.1,0.2,0.3,0.3,0.5,0.4c0.2,0,0.5-0.1,0.6-0.2c4.4-5.9,8.8-12.2,11.1-15.5c1.1-1.6,1.6-3.5,1.5-5.3l-0.7-10.5l4.6-2.7
			C279.7,369.2,272.2,371.5,269.2,373.8z"/>
		<path class="st0" d="M263.3,66.8c-0.1-2.9-0.3-5.2-0.5-7.1c0-0.2,0-0.4,0-0.7c0-18.2-16.6-32.9-37.1-32.9
			c-20.5,0-37.1,14.7-37.1,32.9c0,0.2,0,0.4,0,0.6c-0.3,3.7-0.4,7.6-0.8,11.6c-0.1,0.8,0.4,5,0.4,5l1.1,3.6l0.7,1.8l7,22.5l0.7,4
			c0.5,2.9,1.9,5.6,3.9,7.8l10.1,10.9c1.8,2.2,5.4,4,8.3,4l7.9,0.2c2.6-0.1,6-1.3,7.8-3.3l12-11c2.6-2.4,4.3-5.6,4.9-9.1l0.6-3.9
			l7.3-23.4l0.2-0.8l1.1-3.5C261.9,76,263.5,71.3,263.3,66.8z"/>
	</g>
</g>
<g id="cuello">
	<path class="st4" d="M237.1,128.7c5.5-3.5,7.6-7.6,8.6-7c0.4,0.2,0.7,1.4-2.2,10.1c-2.8,8.7-4.2,13.1-6.7,15.5
		c-1.1,1.1-5,5.1-11.1,5.5c-7,0.4-11.8-4.2-13-5.3c-3.5-3.4-4.7-7.3-7-15.2c-1.1-3.9-2.9-9.9-1.5-10.6c0.5-0.3,2,0,7,6.7
		c2,1.5,6.9,4.6,13.6,4.4C230.8,132.6,235.2,129.9,237.1,128.7z"/>
</g>
<g id="estomago">
	<path class="st4" d="M243.5,271.2c0,0,1.8-20.8-17.3-21.7c0,0-23.1-3.1-20.8,21.7c0,0-4.5,22.6,19,20.8
		C224.4,292,243.5,296,243.5,271.2z"/>
</g>
<g id="abdomen">
	<path class="st4" d="M244.4,325.8c0,0,1.8-26.7-17.3-27.8c0,0-23.1-4-20.8,27.8c0,0-4.5,28.9,19,26.7
		C225.3,352.5,244.4,357.6,244.4,325.8z"/>
</g>
<g id="pelvis">
	<path class="st4" d="M241.4,404.1c0,0,7.6-23.3-10.6-24.5c0,0-23.6-5.1-24.9,12.2c0,0-0.3,24.3,9.6,39.9c0,0,10,13.2,17.3,0
		C232.7,431.7,241.4,413.8,241.4,404.1z"/>
</g>
<g id="barbilla-der">
	<path class="st4" d="M226.9,128.7c-1.2-5.6-1.5-28.1-0.1-40.3c5.7-1.8,26.6-9.4,28.6-7.9c2.9,2.1-4.9,28.4-5.7,30.6
		C249,113.3,233.1,131.8,226.9,128.7z"/>
</g>
<g id="barbilla-izq">
	<path class="st4" d="M223.4,128.7c1.2-5.6,1.5-28.1,0.1-40.3c-5.7-1.8-26.6-9.4-28.6-7.9c-2.9,2.1,4.9,28.4,5.7,30.6
		C201.3,113.3,217.1,131.8,223.4,128.7z"/>
</g>
<g id="cabeza-izq">
	<path class="st4" d="M224.3,38.2c-13.1-6.4-19.5-2.8-20.6-2.1c-10.3,6.2-8.7,28.5-8.1,37.8c0.1,1.3,0.2,2.5,0.3,3.2
		c13.5,4.6,27.5,9.3,27.8,8.6C224.6,83.3,224.3,56.8,224.3,38.2z"/>
</g>
<g id="cabeza-der">
	<path class="st4" d="M225.9,38.2c13.1-6.4,19.5-2.8,20.6-2.1c10.3,6.2,8.7,28.5,8.1,37.8c-0.1,1.3-0.2,2.5-0.3,3.2
		c-13.5,4.6-27.5,9.3-27.8,8.6C225.6,83.3,225.9,56.8,225.9,38.2z"/>
</g>
<g id="clavi-izq">
	<path class="st4" d="M206.7,161c0,0-3.8-18.4-14.9-13.3c-11.1,5.1-31,12-24,26.3c0,0,5.1,14.6,15.5,10.1
		C183.3,184.1,212,172.3,206.7,161z"/>
</g>
<g id="clavi-der">
	<path class="st4" d="M242.5,161c0,0,3.8-18.4,14.9-13.3s31,12,24,26.3c0,0-5.1,14.6-15.5,10.1C265.9,184.1,237.2,172.3,242.5,161z"
		/>
</g>
<g id="hombro-izq">
	<path class="st4" d="M157.8,186.3c0,0,10.5-23.1-8.4-24.9c0,0-23.4-1.5-30.5,29.2c0,0-1,17.1,17.6,13.1
		C136.5,203.7,146.7,202.9,157.8,186.3z"/>
</g>
<g id="pecho-izq">
	<path class="st4" d="M219.4,184.1c0,0,1-10.9-7.8-6.8c-8.7,4.1-55.4,23.1-57.8,47.2c0,0-8.3,36.3,26.2,33.1c0,0,31.6-2.3,36.9-13.6
		C217,244,223.3,224.5,219.4,184.1z"/>
</g>
<g id="brazo-izq">
	<path class="st4" d="M145.3,256.7c3.3-12.9,0.5-24.2-6.4-28c-1.4-0.8-3.7-1.6-7-1.4c-1.9,0.6-5.2,2-8.3,5c-2.5,2.4-4,4.9-4.7,6.6
		c-9,18.3-8.4,34.4-1,39.5c1.5,1,4.6,2.6,10.7,1.4c2.3-1.3,5.6-3.6,8.8-7.1C138.8,271,143.1,265.4,145.3,256.7z"/>
</g>
<g id="antebrazo-izq">
	<path class="st4" d="M117.4,342.7c5.5-10.5,14.3-29,9-33.6c-1.1-0.9-2.9-1.4-6-0.7c0,0-6.7,0.5-14.4-4.6c0,0-1.8-2-4-1.7
		c-4,0.6-5.6,9.3-6.6,14.2c-4.7,24.2-6.7,29.2-9.2,64c-0.2,2.9-0.6,8.9,1.8,9.9c1.4,0.6,3.1-0.7,4.5-1.8c2-3.1,4-6.3,6-9.6
		C105.8,366.5,112.1,354.3,117.4,342.7z"/>
</g>
<g id="muneca-izq">
	<path class="st4" d="M78.3,400.3c0,0,2.8,6.8,11.4,5.4c8.5-1.4,8-9.7,4.8-11S75.3,387.3,78.3,400.3z"/>
</g>
<g id="mano-izq">
	<path class="st4" d="M96.6,406.9c0,0-19.8,5.3-22.8-7.9c0,0-13.3,5.8-15,10.8c0,0,16.6,15.3,35.2,6
		C94.1,415.8,96.7,411.6,96.6,406.9z"/>
</g>
<g id="palma-izq">
	<path class="st4" d="M57.2,412.5c0,0-6,13.3-6.7,14.6s-5.4,4.5-7.3,5.8s5,5.8,11,0c0,0,6.7,2.4,3,7c0,0-6.2,18.5,20.5,18.1
		c0,0,13.1-19.7,15.7-39.2c-2.5,1.5-6.1,3.1-10.6,3.6C69,424.1,58.8,414.1,57.2,412.5z"/>
</g>
<g id="costillas-izq">
	<path class="st4" d="M193.2,302.8c0,0-0.8-41.6-19.6-38.8c0,0-15.9,1.5-14.7,8.7c1.2,7.1,9.4,27.6,10.3,50.7c0,0-2.4,23.1,8.7,23.4
		c0,0,15.9,4,16.5-9.8C195,323.2,193.2,302.8,193.2,302.8z"/>
</g>
<g id="cadera-izq">
	<path class="st4" d="M194.6,423.8c0,0,13.2,2.5,10.9-7.9s-8.9-32.6-8.9-42.6c-0.1-10,1.1-18.3-9.4-21.1c0,0-17.2-6.1-19.5,6.1
		c-2.3,12.2-10.2,46.6-5.5,53.4C166.8,418.5,194.6,423.8,194.6,423.8z"/>
</g>
<g id="pierna-izq">
	<path class="st4" d="M172.7,522.9c0,0-1.2-32.5,2.4-46.2c3.9-14.8,1.1-25-5.3-29.8c-3.6-2.6-9-3.5-12.9-1.5
		c-6.9,3.5-7.5,14.8-7.6,23.6c-0.2,13.7,0.4,37.7,6.3,73.2c1.2,5.7,6.4,8.7,10.3,7.6c2.6-0.8,4.6-3.5,5.2-6.7
		C171.1,543,172.9,529.8,172.7,522.9z"/>
</g>
<g id="muslo-izq_00000121996155479789388600000005701111773569580181_">
	<path class="st4" d="M199.3,552.8c0,3.7-1.8,7.2-4.9,9c-3.9,2.3-9.1,1.5-12.6-1.9c-0.5-1.4-1.4-3.7-2.3-6.7
		c-2.8-9.4-5.6-24.3,0.4-65.7c0.7-5.1,1.8-12.4,3.4-21.1c0.1-1.1,0.7-8,6.2-11.8c5.9-4.2,15.1-3.2,21.6,3c1.1,1.7,2.7,4.7,3.3,8.6
		c0.9,5.3-0.3,9.6-1,11.6c-1.3,5.5-2.5,11.2-3.7,17c-1.6,7.7-3,15.2-4.3,22.6c-0.4,4.9-1.1,10.1-2,15.6
		C202.3,540.2,200.9,546.8,199.3,552.8z"/>
</g>
<g id="rodilla-izq">
	<path class="st4" d="M191.9,576.9c-0.3-0.6-4.6-9-13.5-9.8c-6-0.5-11.9,2.7-15.3,8.3c-8.1,12.4-5.3,28.2,3.2,34.2
		c5.9,4.3,14.6,3.6,21.6-1.5c1.6-1.9,3.6-4.9,5-8.9C196.4,588.9,192.9,579.4,191.9,576.9z"/>
</g>
<g id="muslo-izq">
	<path class="st4" d="M191.2,637c-1.6-7.3-8-12.7-15.6-13.4c-6.9-0.6-13.7,2.7-17.3,8.5c-0.9,4.2-2,10.4-2.4,17.8
		c-0.9,15.8,1.7,26.7,7.8,50.6c11,43.2,13.8,52.6,17,52.4c1.6-0.1,2.9-2.9,3.7-5.8c3.9-15.4,5.9-29.3,6.9-41.3
		c0.7-9.2,0.8-16.4,0.9-27.1C192.2,663.7,191.8,649.8,191.2,637z"/>
</g>
<g id="tobillo-izq">
	<path class="st4" d="M189.9,770.9c2.2-1.8,2.9-5,1.7-7.7c-0.2-0.5-2.6-4.6-7.5-5.3c-5.1-0.8-8.5,2.5-8.9,2.9
		c-2.3,2.3-2.6,5.9-0.8,8.5C176.2,772,185.2,774.1,189.9,770.9z"/>
</g>
<g id="pie-izq_00000013152723725453838670000008807163536140319652_">
	<path class="st4" d="M182.6,796.7c0.7,0.1,6.4,0.6,9.8-3.3c1.7-2,2-4.2,2.2-5.3c0.2-1.3,0.9-5.3-1.6-8.6c-3.3-4.6-9.4-4.2-9.8-4.2
		c-0.8-0.1-6-0.4-10.2,3.5c-4.8,4.6-4.1,10.9-4,11.5c0.5,1.1,1.3,2.7,2.9,4C176.1,797.9,181.7,796.9,182.6,796.7z"/>
</g>
<g id="puntaPie-izq">
	<path class="st4" d="M164.7,828.4c1.4,0.6,22.3,10.2,27.8,3.6c0.9-1.1,1.3-2.8,2.1-6.2c1.7-7.1,2.6-10.7,1.1-13.7
		c-2-3.9-6.9-4.9-15.1-6.4c-8.7-1.6-13-2.5-16.8,0.2c-5.6,3.9-6.6,12.8-4.1,18.7C160.3,825.4,161.4,827.1,164.7,828.4z"/>
</g>
<g id="hombro-der">
	<path class="st4" d="M289.9,184.3c0,0-10.5-23.1,8.4-24.9c0,0,23.4-1.5,30.5,29.2c0,0,1,17.1-17.6,13.1
		C311.2,201.7,301,200.9,289.9,184.3z"/>
</g>
<g id="pecho-der">
	<path class="st4" d="M229.7,184.1c0,0-1-10.9,7.8-6.8c8.7,4.1,55.4,23.1,57.8,47.2c0,0,8.3,36.3-26.2,33.1c0,0-31.6-2.3-36.9-13.6
		C232.2,244,225.8,224.5,229.7,184.1z"/>
</g>
<g id="antebrazo-der">
	<path class="st4" d="M331.9,342.7c-5.5-10.5-14.3-29-9-33.6c1.1-0.9,2.9-1.4,6-0.7c0,0,6.7,0.5,14.4-4.6c0,0,1.8-2,4-1.7
		c4,0.6,5.6,9.3,6.6,14.2c4.7,24.2,6.7,29.2,9.2,64c0.2,2.9,0.6,8.9-1.8,9.9c-1.4,0.6-3.1-0.7-4.5-1.8c-2-3.1-4-6.3-6-9.6
		C343.5,366.5,337.2,354.3,331.9,342.7z"/>
</g>
<g id="brazo-der">
	<path class="st4" d="M303.4,256.7c-3.3-12.9-0.5-24.2,6.4-28c1.4-0.8,3.7-1.6,7-1.4c1.9,0.6,5.2,2,8.3,5c2.5,2.4,4,4.9,4.7,6.6
		c9,18.3,8.4,34.4,1,39.5c-1.5,1-4.6,2.6-10.7,1.4c-2.3-1.3-5.6-3.6-8.8-7.1C310,271,305.7,265.4,303.4,256.7z"/>
</g>
<g id="muneca-der">
	<path class="st4" d="M369,399.7c0,0-2.8,6.8-11.4,5.4s-8-9.7-4.8-11C356.1,392.8,371.9,386.7,369,399.7z"/>
</g>
<g id="mano-der_00000078025634538378286650000008570182346881580432_">
	<path class="st4" d="M350.7,406.3c0,0,19.8,5.3,22.8-7.9c0,0,13.3,5.8,15,10.8c0,0-16.6,15.3-35.2,6
		C353.2,415.2,350.6,411,350.7,406.3z"/>
</g>
<g id="palma-der">
	<path class="st4" d="M390.1,411.9c0,0,6,13.3,6.7,14.6s5.4,4.5,7.3,5.8c2,1.3-5,5.8-11,0c0,0-6.7,2.4-3,7c0,0,6.2,18.5-20.5,18.1
		c0,0-13.1-19.7-15.7-39.2c2.5,1.5,6.1,3.1,10.6,3.6C378.3,423.5,388.5,413.5,390.1,411.9z"/>
</g>
<g id="costillas-der">
	<path class="st4" d="M255.6,302.8c0,0,0.8-41.6,19.6-38.8c0,0,15.9,1.5,14.7,8.7c-1.2,7.1-9.4,27.6-10.3,50.7
		c0,0,2.4,23.1-8.7,23.4c0,0-15.9,4-16.5-9.8C253.8,323.2,255.6,302.8,255.6,302.8z"/>
</g>
<g id="cadera-der">
	<path class="st4" d="M254.4,423.8c0,0-13.2,2.5-10.9-7.9c2.3-10.4,8.9-32.6,8.9-42.6c0.1-10-1.1-18.3,9.4-21.1
		c0,0,17.2-6.1,19.5,6.1c2.3,12.2,10.2,46.6,5.5,53.4C282.2,418.5,254.4,423.8,254.4,423.8z"/>
</g>
<g id="pierna-der">
	<path class="st4" d="M274.7,523.3c0,0,1.2-32.5-2.4-46.2c-3.9-14.8-1.1-25,5.3-29.8c3.6-2.6,9-3.5,12.9-1.5
		c6.9,3.5,7.5,14.8,7.6,23.6c0.2,13.7-0.4,37.7-6.3,73.2c-1.2,5.7-6.4,8.7-10.3,7.6c-2.6-0.8-4.6-3.5-5.2-6.7
		C276.3,543.4,274.5,530.1,274.7,523.3z"/>
</g>
<g id="muslo-der">
	<path class="st4" d="M248.1,553.2c0,3.7,1.8,7.2,4.9,9c3.9,2.3,9.1,1.5,12.6-1.9c0.5-1.4,1.4-3.7,2.3-6.7
		c2.8-9.4,5.6-24.3-0.4-65.7c-0.7-5.1-1.8-12.4-3.4-21.1c-0.1-1.1-0.7-8-6.2-11.8c-5.9-4.2-15.1-3.2-21.6,3
		c-1.1,1.7-2.7,4.7-3.3,8.6c-0.9,5.3,0.3,9.6,1,11.6c1.3,5.5,2.5,11.2,3.7,17c1.6,7.7,3,15.2,4.3,22.6c0.4,4.9,1.1,10.1,2,15.6
		C245.1,540.6,246.6,547.2,248.1,553.2z"/>
</g>
<g id="rodilla-der">
	<path class="st4" d="M255.5,577.3c0.3-0.6,4.6-9,13.5-9.8c6-0.5,11.9,2.7,15.3,8.3c8.1,12.4,5.3,28.2-3.2,34.2
		c-5.9,4.3-14.6,3.6-21.6-1.5c-1.6-1.9-3.6-4.9-5-8.9C251,589.3,254.6,579.7,255.5,577.3z"/>
</g>
<g id="pantorrilla-der">
	<path class="st4" d="M256.3,637.4c1.6-7.3,8-12.7,15.6-13.4c6.9-0.6,13.7,2.7,17.3,8.5c0.9,4.2,2,10.4,2.4,17.8
		c0.9,15.8-1.7,26.7-7.8,50.6c-11,43.2-13.8,52.6-17,52.4c-1.6-0.1-2.9-2.9-3.7-5.8c-3.9-15.4-5.9-29.3-6.9-41.3
		c-0.7-9.2-0.8-16.4-0.9-27.1C255.2,664.1,255.6,650.2,256.3,637.4z"/>
</g>
<g id="tobillo-der">
	<path class="st4" d="M260.1,768.9c-2.2-1.8-2.9-5-1.7-7.7c0.2-0.5,2.6-4.6,7.5-5.3c5.1-0.8,8.5,2.5,8.9,2.9
		c2.3,2.3,2.6,5.9,0.8,8.5C273.8,770,264.8,772.1,260.1,768.9z"/>
</g>
<g id="pie-der">
	<path class="st4" d="M267.4,794.7c-0.7,0.1-6.4,0.6-9.8-3.3c-1.7-2-2-4.2-2.2-5.3c-0.2-1.3-0.9-5.3,1.6-8.6
		c3.3-4.6,9.4-4.2,9.8-4.2c0.8-0.1,6-0.4,10.2,3.5c4.8,4.6,4.1,10.9,4,11.5c-0.5,1.1-1.3,2.7-2.9,4
		C273.9,795.9,268.3,794.9,267.4,794.7z"/>
</g>
<g id="puntaPie-der">
	<path class="st4" d="M285.3,826.4c-1.4,0.6-22.3,10.2-27.8,3.6c-0.9-1.1-1.3-2.8-2.1-6.2c-1.7-7.1-2.6-10.7-1.1-13.7
		c2-3.9,6.9-4.9,15.1-6.4c8.7-1.6,13-2.5,16.8,0.2c5.6,3.9,6.6,12.8,4.1,18.7C289.7,823.4,288.6,825.1,285.3,826.4z"/>
</g>
</svg>
